<svg version="1.2" xmlns="http://www.w3.org/2000/svg" viewBox="0 0 240 210" width="240" height="210">
	<title>integration-team-finals-liggend-ai-svg</title>
	<style>
		.s0 { fill: #243f8e } 
		.s1 { fill: #d5435c } 
	</style>
	<g id="Layer 3">
	</g>
	<g id="grid">
	</g>
	<g id="logo">
		<g id="&lt;Group&gt;">
			<g id="&lt;Group&gt;">
				<path id="&lt;Path&gt;" class="s0" d="m18.5 133.3c-3.5 0-6.7-1.2-9-3.4-0.8-0.8-0.8-2 0-2.8 0.9-0.7 2.2-0.7 3 0.1 1.6 1.5 3.7 2.3 6 2.3 2.4 0 4.8-0.9 6.5-2.6l15.8-15c3.5-3.3 3.5-8.6 0.1-11.8-1.6-1.5-3.7-2.4-6-2.4-2.4 0-4.6 0.9-6.3 2.5l-7.5 7.2c-0.9 0.7-2.2 0.7-3 0-0.8-0.8-0.8-2 0-2.7l7.5-7.2c2.5-2.4 5.8-3.6 9.3-3.6 3.4 0 6.6 1.2 9 3.5 5 4.7 4.9 12.4-0.1 17.2l-15.9 15c-2.4 2.4-5.9 3.7-9.4 3.7z"/>
			</g>
			<g id="&lt;Group&gt;">
				<path id="&lt;Path&gt;" class="s1" d="m1 119.1c1.3-1.2 3.4-1.2 4.7 0 1.3 1.2 1.3 3.2 0 4.5-1.3 1.2-3.4 1.2-4.7 0-1.3-1.3-1.3-3.3 0-4.5z"/>
			</g>
			<g id="&lt;Group&gt;">
				<path id="&lt;Path&gt;" class="s1" d="m47.6 89.8c1.3-1.2 3.4-1.2 4.7 0 1.3 1.3 1.3 3.3 0 4.5-1.3 1.2-3.4 1.2-4.7 0-1.3-1.2-1.3-3.2 0-4.5z"/>
			</g>
			<g id="&lt;Group&gt;">
				<path id="&lt;Path&gt;" class="s0" d="m18.5 119.5c-3.5 0-6.7-1.2-9.1-3.5-5-4.7-4.9-12.4 0.1-17.2l15.9-15c2.4-2.4 5.9-3.7 9.5-3.7 3.4 0 6.6 1.2 8.9 3.4 0.8 0.8 0.8 2 0 2.8-0.8 0.7-2.2 0.7-3-0.1-1.5-1.5-3.6-2.2-5.9-2.2-2.5 0-4.8 0.9-6.6 2.5l-15.8 15c-3.4 3.3-3.5 8.6-0.1 11.8 1.6 1.5 3.8 2.4 6.1 2.4 2.3 0 4.5-0.9 6.2-2.5l7.6-7.2c0.8-0.7 2.1-0.7 2.9 0 0.8 0.8 0.8 2 0.1 2.8l-7.6 7.1c-2.5 2.4-5.7 3.6-9.2 3.6z"/>
			</g>
			<g id="&lt;Group&gt;">
				<path id="&lt;Compound Path&gt;" class="s0" d="m73.2 91.6h3.3v14.5h-3.3z"/>
				<path id="&lt;Compound Path&gt;" class="s0" d="m79.6 95.4q0.8-0.2 2.1-0.4 1.3-0.2 2.6-0.2 1.4 0 2.4 0.4 0.9 0.3 1.5 1 0.5 0.7 0.7 1.6 0.3 0.9 0.3 2.1v6.2h-3.2v-5.9q0-1.5-0.3-2.1-0.4-0.6-1.6-0.6-0.3 0-0.7 0-0.4 0-0.6 0.1v8.5h-3.2z"/>
				<path id="&lt;Compound Path&gt;" class="s0" d="m91.9 92.3l3.2-0.5v3.2h3.7v2.7h-3.7v3.9q0 0.9 0.3 1.5 0.4 0.6 1.4 0.6 0.5 0 1-0.1 0.6-0.1 1-0.2l0.5 2.4q-0.6 0.2-1.3 0.4-0.7 0.2-1.7 0.2-1.3 0-2.1-0.4-0.9-0.3-1.4-0.9-0.5-0.6-0.7-1.5-0.2-0.9-0.2-2z"/>
				<path id="&lt;Compound Path&gt;" fill-rule="evenodd" class="s0" d="m100.4 100.7q0-1.5 0.5-2.6 0.4-1.1 1.2-1.8 0.7-0.8 1.7-1.2 0.9-0.4 1.9-0.4 2.4 0 3.7 1.5 1.4 1.4 1.4 4.2 0 0.3 0 0.6 0 0.4 0 0.6h-7.1q0.1 1 0.8 1.6 0.8 0.5 2.2 0.5 0.9 0 1.7-0.1 0.8-0.2 1.3-0.4l0.5 2.5q-0.3 0.1-0.7 0.3-0.4 0.1-0.9 0.2-0.6 0.1-1.2 0.2-0.6 0-1.1 0-1.5 0-2.6-0.4-1.1-0.5-1.9-1.2-0.7-0.8-1-1.9-0.4-1-0.4-2.2zm7.4-1.2q0-0.4-0.2-0.8-0.1-0.4-0.3-0.7-0.3-0.3-0.6-0.5-0.4-0.2-0.9-0.2-0.6 0-0.9 0.2-0.4 0.2-0.7 0.5-0.2 0.3-0.3 0.7-0.2 0.4-0.2 0.8z"/>
				<path id="&lt;Compound Path&gt;" fill-rule="evenodd" class="s0" d="m122.8 104.8q0 2.7-1.4 4-1.4 1.3-4.2 1.3-1.1 0-2.1-0.2-1-0.2-1.8-0.5l0.5-2.6q0.8 0.3 1.6 0.5 0.8 0.1 1.8 0.1 1.3 0 1.9-0.5 0.6-0.6 0.6-1.6v-0.4q-0.5 0.2-1.1 0.4-0.5 0.1-1.2 0.1-2.3 0-3.5-1.4-1.2-1.3-1.2-3.8 0-1.2 0.4-2.2 0.4-1 1.1-1.7 0.7-0.7 1.8-1.1 1-0.4 2.4-0.4 0.5 0 1.1 0 0.6 0.1 1.2 0.2 0.6 0.1 1.1 0.2 0.6 0.1 1 0.2zm-6.9-4.5q0 2.7 2.1 2.7 0.5 0 1-0.2 0.4-0.1 0.7-0.3v-5q-0.3 0-0.6 0-0.3-0.1-0.7-0.1-1.2 0-1.9 0.9-0.6 0.8-0.6 2z"/>
				<path id="&lt;Compound Path&gt;" class="s0" d="m132.4 97.8q-0.4-0.1-1-0.2-0.6-0.1-1.2-0.1-0.3 0-0.7 0-0.4 0.1-0.6 0.2v8.4h-3.2v-10.5q0.9-0.3 2.1-0.5 1.1-0.3 2.5-0.3 0.2 0 0.6 0 0.4 0.1 0.7 0.1 0.4 0.1 0.7 0.2 0.4 0 0.7 0.1z"/>
				<path id="&lt;Compound Path&gt;" fill-rule="evenodd" class="s0" d="m138.4 94.7q1.4 0 2.3 0.4 0.9 0.3 1.5 0.9 0.6 0.6 0.8 1.4 0.2 0.9 0.2 1.9v6.5q-0.7 0.2-1.9 0.4-1.1 0.2-2.9 0.2-1 0-1.9-0.2-0.9-0.2-1.5-0.7-0.6-0.4-1-1.1-0.3-0.7-0.3-1.7 0-0.9 0.4-1.6 0.4-0.7 1-1.1 0.7-0.4 1.5-0.6 0.9-0.1 1.8-0.1 0.6 0 1 0 0.5 0.1 0.8 0.1v-0.3q0-0.8-0.5-1.3-0.5-0.4-1.6-0.4-0.9 0-1.6 0.1-0.8 0.1-1.4 0.3l-0.4-2.5q0.3-0.1 0.7-0.2 0.4-0.1 0.9-0.2 0.5 0 1-0.1 0.6-0.1 1.1-0.1zm0.2 9.2q0.5 0 0.9 0 0.5 0 0.7 0v-2.4q-0.2-0.1-0.6-0.1-0.3 0-0.7 0-0.4 0-0.8 0-0.4 0.1-0.7 0.2-0.3 0.2-0.4 0.4-0.2 0.3-0.2 0.6 0 0.8 0.5 1.1 0.5 0.2 1.3 0.2z"/>
				<path id="&lt;Compound Path&gt;" class="s0" d="m146 92.3l3.1-0.5v3.2h3.8v2.7h-3.8v3.9q0 0.9 0.3 1.5 0.4 0.6 1.4 0.6 0.6 0 1.1-0.1 0.5-0.1 1-0.2l0.4 2.4q-0.6 0.2-1.3 0.4-0.6 0.2-1.7 0.2-1.3 0-2.1-0.4-0.8-0.3-1.3-0.9-0.5-0.6-0.7-1.5-0.2-0.9-0.2-2z"/>
				<path id="&lt;Compound Path&gt;" class="s0" d="m158.8 91.9q0 0.8-0.5 1.3-0.6 0.5-1.4 0.5-0.7 0-1.3-0.5-0.5-0.5-0.5-1.3 0-0.9 0.5-1.4 0.6-0.5 1.3-0.5 0.8 0 1.4 0.5 0.5 0.5 0.5 1.4zm-3.4 3.1h3.1v11.1h-3.1z"/>
				<path id="&lt;Compound Path&gt;" fill-rule="evenodd" class="s0" d="m171.9 100.6q0 1.3-0.4 2.4-0.4 1-1.1 1.8-0.7 0.8-1.7 1.2-1.1 0.4-2.3 0.4-1.2 0-2.2-0.4-1-0.4-1.7-1.2-0.7-0.8-1.1-1.8-0.4-1.1-0.4-2.4 0-1.3 0.4-2.4 0.4-1.1 1.1-1.8 0.7-0.8 1.7-1.2 1-0.5 2.2-0.5 1.2 0 2.2 0.5 1 0.4 1.7 1.2 0.7 0.7 1.1 1.8 0.5 1.1 0.5 2.4zm-3.3 0q0-1.5-0.5-2.3-0.6-0.9-1.7-0.9-1.1 0-1.6 0.9-0.6 0.8-0.6 2.3 0 1.4 0.6 2.3 0.5 0.8 1.6 0.8 1.1 0 1.7-0.8 0.5-0.9 0.5-2.3z"/>
				<path id="&lt;Compound Path&gt;" class="s0" d="m174.3 95.4q0.8-0.2 2-0.4 1.3-0.2 2.7-0.2 1.4 0 2.3 0.4 1 0.3 1.5 1 0.5 0.7 0.8 1.6 0.2 0.9 0.2 2.1v6.2h-3.1v-5.9q0-1.5-0.4-2.1-0.4-0.6-1.5-0.6-0.4 0-0.7 0-0.4 0-0.7 0.1v8.5h-3.1z"/>
				<path id="&lt;Compound Path&gt;" class="s1" d="m189.7 104.5q0 0.9-0.6 1.4-0.5 0.5-1.3 0.5-0.8 0-1.4-0.5-0.6-0.5-0.6-1.4 0-1 0.6-1.5 0.6-0.5 1.4-0.5 0.8 0 1.3 0.5 0.6 0.5 0.6 1.5z"/>
				<path id="&lt;Compound Path&gt;" class="s1" d="m191.7 92.3l3.2-0.5v3.2h3.8v2.7h-3.8v3.9q0 0.9 0.3 1.5 0.4 0.6 1.4 0.6 0.5 0 1.1-0.1 0.5-0.1 1-0.2l0.4 2.4q-0.6 0.2-1.3 0.4-0.7 0.2-1.7 0.2-1.3 0-2.1-0.4-0.8-0.3-1.4-0.9-0.5-0.6-0.7-1.5-0.2-0.9-0.2-2z"/>
				<path id="&lt;Compound Path&gt;" fill-rule="evenodd" class="s1" d="m200.2 100.7q0-1.5 0.5-2.6 0.5-1.1 1.2-1.8 0.7-0.8 1.7-1.2 0.9-0.4 1.9-0.4 2.4 0 3.8 1.5 1.3 1.4 1.3 4.2 0 0.3 0 0.6 0 0.4 0 0.6h-7.1q0.1 1 0.9 1.6 0.8 0.5 2.1 0.5 0.9 0 1.7-0.1 0.9-0.2 1.4-0.4l0.4 2.5q-0.3 0.1-0.7 0.3-0.4 0.1-0.9 0.2-0.5 0.1-1.1 0.2-0.6 0-1.2 0-1.5 0-2.6-0.4-1.1-0.5-1.8-1.2-0.8-0.8-1.1-1.9-0.4-1-0.4-2.2zm7.4-1.2q0-0.4-0.1-0.8-0.2-0.4-0.4-0.7-0.2-0.3-0.6-0.5-0.4-0.2-0.9-0.2-0.5 0-0.9 0.2-0.4 0.2-0.6 0.5-0.3 0.3-0.4 0.7-0.2 0.4-0.2 0.8z"/>
				<path id="&lt;Compound Path&gt;" fill-rule="evenodd" class="s1" d="m217.1 94.7q1.3 0 2.3 0.4 0.9 0.3 1.4 0.9 0.6 0.6 0.8 1.4 0.3 0.9 0.3 1.9v6.5q-0.7 0.2-1.9 0.4-1.2 0.2-2.9 0.2-1.1 0-2-0.2-0.8-0.2-1.5-0.7-0.6-0.4-0.9-1.1-0.4-0.7-0.4-1.7 0-0.9 0.4-1.6 0.4-0.7 1.1-1.1 0.6-0.4 1.4-0.6 0.9-0.1 1.8-0.1 0.6 0 1.1 0 0.5 0.1 0.8 0.1v-0.3q0-0.8-0.5-1.3-0.5-0.4-1.7-0.4-0.8 0-1.6 0.1-0.8 0.1-1.3 0.3l-0.4-2.5q0.2-0.1 0.6-0.2 0.5-0.1 0.9-0.2 0.5 0 1.1-0.1 0.5-0.1 1.1-0.1zm0.2 9.2q0.4 0 0.9 0 0.4 0 0.7 0v-2.4q-0.2-0.1-0.6-0.1-0.4 0-0.7 0-0.4 0-0.8 0-0.4 0.1-0.7 0.2-0.3 0.2-0.5 0.4-0.2 0.3-0.2 0.6 0 0.8 0.5 1.1 0.5 0.2 1.4 0.2z"/>
				<path id="&lt;Compound Path&gt;" class="s1" d="m230.8 100.2q0-1.5-0.4-2.1-0.4-0.6-1.3-0.6-0.3 0-0.7 0-0.3 0-0.5 0.1v8.5h-3.2v-10.7q0.4-0.1 0.9-0.2 0.6-0.1 1.2-0.2 0.6-0.1 1.2-0.2 0.6 0 1.2 0 1.3 0 2 0.3 0.7 0.3 1.2 0.7 0.7-0.5 1.6-0.7 0.9-0.3 1.6-0.3 1.3 0 2.2 0.4 0.8 0.3 1.3 1 0.5 0.7 0.7 1.6 0.2 0.9 0.2 2.1v6.2h-3.1v-5.9q0-1.5-0.4-2.1-0.4-0.6-1.3-0.6-0.3 0-0.8 0.1-0.4 0.1-0.7 0.3 0.1 0.5 0.2 1 0 0.6 0 1.2v6h-3.1z"/>
			</g>
			<g id="&lt;Group&gt;">
				<path id="&lt;Compound Path&gt;" class="s0" d="m74.5 122.8q-0.5 0-1-0.2-0.5-0.2-0.8-0.6-0.4-0.4-0.5-0.9-0.2-0.5-0.2-1.2 0-0.7 0.2-1.2 0.2-0.5 0.5-0.9 0.4-0.4 0.9-0.6 0.4-0.2 1-0.2 0.3 0 0.6 0.1 0.2 0 0.4 0.1 0.3 0.1 0.4 0.1 0.1 0.1 0.2 0.1l-0.3 0.7q0-0.1-0.2-0.1-0.1-0.1-0.3-0.1-0.2-0.1-0.3-0.1-0.2-0.1-0.4-0.1-0.5 0-0.8 0.2-0.4 0.1-0.6 0.4-0.3 0.3-0.4 0.7-0.1 0.4-0.1 0.9 0 0.5 0.1 0.9 0.1 0.4 0.3 0.7 0.3 0.3 0.6 0.4 0.3 0.2 0.8 0.2 0.5 0 0.9-0.1 0.3-0.1 0.5-0.2l0.2 0.6q-0.1 0.1-0.2 0.1-0.1 0.1-0.4 0.1-0.2 0.1-0.5 0.1-0.2 0.1-0.6 0.1z"/>
				<path id="&lt;Compound Path&gt;" fill-rule="evenodd" class="s0" d="m80.5 120.6q0 0.5-0.1 0.9-0.1 0.4-0.4 0.7-0.3 0.2-0.6 0.4-0.4 0.2-0.8 0.2-0.4 0-0.8-0.2-0.3-0.2-0.6-0.4-0.2-0.3-0.4-0.7-0.1-0.4-0.1-0.9 0-0.5 0.1-0.9 0.2-0.4 0.4-0.7 0.3-0.3 0.6-0.4 0.4-0.2 0.8-0.2 0.4 0 0.8 0.2 0.3 0.1 0.6 0.4 0.3 0.3 0.4 0.7 0.1 0.4 0.1 0.9zm-0.7 0q0-0.7-0.3-1.1-0.4-0.4-0.9-0.4-0.5 0-0.8 0.4-0.3 0.4-0.3 1.1 0 0.7 0.3 1.1 0.3 0.4 0.8 0.4 0.5 0 0.9-0.4 0.3-0.4 0.3-1.1z"/>
				<path id="&lt;Compound Path&gt;" class="s0" d="m81.6 118.6q0.2 0 0.6-0.1 0.5-0.1 1-0.1 0.5 0 0.8 0.2 0.3 0.1 0.5 0.4 0.2 0.2 0.3 0.6 0.1 0.3 0.1 0.7v2.3h-0.8v-2.1q0-0.4 0-0.6-0.1-0.3-0.2-0.5-0.1-0.2-0.3-0.2-0.2-0.1-0.5-0.1-0.1 0-0.2 0-0.1 0-0.3 0-0.1 0-0.2 0-0.1 0.1-0.1 0.1v3.4h-0.7z"/>
				<path id="&lt;Compound Path&gt;" class="s0" d="m86.1 118.6q0.2 0 0.7-0.1 0.4-0.1 0.9-0.1 0.5 0 0.8 0.2 0.4 0.1 0.6 0.4 0.1 0.2 0.2 0.6 0.1 0.3 0.1 0.7v2.3h-0.7v-2.1q0-0.4-0.1-0.6 0-0.3-0.2-0.5-0.1-0.2-0.2-0.2-0.2-0.1-0.5-0.1-0.2 0-0.3 0-0.1 0-0.2 0-0.1 0-0.2 0-0.1 0.1-0.2 0.1v3.4h-0.7z"/>
				<path id="&lt;Compound Path&gt;" fill-rule="evenodd" class="s0" d="m90.4 120.6q0-0.5 0.2-1 0.1-0.4 0.4-0.6 0.2-0.3 0.6-0.4 0.3-0.2 0.7-0.2 0.8 0 1.3 0.5 0.4 0.6 0.4 1.6 0 0.1 0 0.2 0 0 0 0.1h-2.9q0.1 0.6 0.4 1 0.4 0.3 1 0.3 0.4 0 0.7-0.1 0.3 0 0.4-0.1l0.1 0.6q-0.1 0.1-0.5 0.2-0.3 0-0.7 0-0.6 0-1-0.1-0.4-0.2-0.6-0.5-0.2-0.3-0.4-0.7-0.1-0.4-0.1-0.8zm2.8-0.4q0-0.5-0.2-0.8-0.3-0.3-0.7-0.3-0.3 0-0.5 0.1-0.2 0.1-0.3 0.2-0.2 0.2-0.2 0.4-0.1 0.2-0.1 0.4z"/>
				<path id="&lt;Compound Path&gt;" class="s0" d="m96.8 122.7q-0.5 0-0.8-0.1-0.4-0.2-0.7-0.5-0.2-0.3-0.4-0.6-0.1-0.4-0.1-0.9 0-0.5 0.1-0.9 0.2-0.4 0.4-0.7 0.3-0.3 0.7-0.4 0.3-0.2 0.8-0.2 0.2 0 0.5 0.1 0.3 0 0.6 0.1l-0.2 0.7q-0.2-0.1-0.4-0.2-0.2 0-0.5 0-0.6 0-0.9 0.4-0.3 0.4-0.3 1.1 0 0.3 0.1 0.6 0 0.3 0.2 0.5 0.2 0.2 0.4 0.3 0.2 0.1 0.6 0.1 0.3 0 0.5-0.1 0.3 0 0.4-0.1l0.1 0.6q0 0.1-0.2 0.1-0.1 0-0.2 0.1-0.2 0-0.4 0-0.1 0-0.3 0z"/>
				<path id="&lt;Compound Path&gt;" class="s0" d="m99.4 118.5h1.6v0.6h-1.6v1.9q0 0.3 0 0.5 0.1 0.3 0.2 0.4 0.1 0.1 0.2 0.1 0.2 0.1 0.4 0.1 0.3 0 0.5-0.1 0.2-0.1 0.3-0.1l0.1 0.6q-0.1 0.1-0.4 0.2-0.2 0-0.6 0-0.4 0-0.7-0.1-0.3-0.1-0.5-0.3-0.1-0.2-0.2-0.5 0-0.3 0-0.8v-3.6l0.7-0.1z"/>
				<path id="&lt;Compound Path&gt;" class="s0" d="m102.2 117.8q-0.2 0-0.3-0.1-0.1-0.2-0.1-0.4 0-0.2 0.1-0.3 0.1-0.2 0.3-0.2 0.2 0 0.4 0.2 0.1 0.1 0.1 0.3 0 0.2-0.1 0.4-0.2 0.1-0.4 0.1zm-0.3 0.7h0.7v4.1h-0.7z"/>
				<path id="&lt;Compound Path&gt;" class="s0" d="m103.9 118.6q0.2 0 0.6-0.1 0.5-0.1 1-0.1 0.5 0 0.8 0.2 0.4 0.1 0.5 0.4 0.2 0.2 0.3 0.6 0.1 0.3 0.1 0.7v2.3h-0.7v-2.1q0-0.4-0.1-0.6 0-0.3-0.1-0.5-0.2-0.2-0.4-0.2-0.2-0.1-0.5-0.1-0.1 0-0.2 0-0.1 0-0.3 0-0.1 0-0.2 0-0.1 0.1-0.1 0.1v3.4h-0.7z"/>
				<path id="&lt;Compound Path&gt;" fill-rule="evenodd" class="s0" d="m111 122.2q-0.1 0.1-0.4 0.2-0.3 0.1-0.6 0.1-0.4 0-0.7-0.1-0.3-0.1-0.6-0.4-0.2-0.2-0.4-0.6-0.1-0.4-0.1-0.9 0-0.4 0.1-0.8 0.2-0.4 0.4-0.7 0.3-0.3 0.7-0.4 0.3-0.2 0.8-0.2 0.5 0 0.9 0.1 0.4 0.1 0.6 0.2v3.6q0 1-0.5 1.4-0.5 0.4-1.5 0.4-0.3 0-0.7 0-0.3-0.1-0.6-0.2l0.2-0.6q0.2 0.1 0.5 0.1 0.3 0.1 0.6 0.1 0.7 0 1-0.3 0.3-0.2 0.3-0.8zm0-3q-0.1-0.1-0.3-0.1-0.2 0-0.5 0-0.6 0-0.9 0.4-0.3 0.4-0.3 1 0 0.3 0.1 0.6 0 0.2 0.2 0.4 0.1 0.2 0.3 0.3 0.2 0 0.4 0 0.3 0 0.6-0.1 0.2 0 0.4-0.1z"/>
				<path id="&lt;Compound Path&gt;" fill-rule="evenodd" class="s0" d="m116.1 118.4q0.5 0 0.8 0.1 0.3 0.2 0.4 0.4 0.2 0.2 0.3 0.5 0.1 0.3 0.1 0.6v2.6q-0.1 0-0.3 0-0.1 0-0.3 0.1-0.2 0-0.5 0-0.3 0-0.5 0-0.4 0-0.6 0-0.3-0.1-0.6-0.3-0.2-0.1-0.3-0.4-0.1-0.2-0.1-0.6 0-0.3 0.2-0.5 0.1-0.3 0.3-0.4 0.2-0.2 0.6-0.3 0.3 0 0.6 0 0.1 0 0.3 0 0.1 0 0.2 0 0.1 0 0.2 0 0.1 0.1 0.1 0.1v-0.2q0-0.2 0-0.4-0.1-0.2-0.2-0.3-0.1-0.2-0.3-0.3-0.2 0-0.4 0-0.4 0-0.7 0-0.3 0.1-0.4 0.1l-0.1-0.6q0.2-0.1 0.5-0.1 0.3-0.1 0.7-0.1zm0.1 3.7q0.3 0 0.5 0 0.2 0 0.3 0v-1.2q-0.1-0.1-0.3-0.1-0.1 0-0.4 0-0.2 0-0.4 0-0.1 0-0.3 0.1-0.2 0-0.3 0.2-0.1 0.1-0.1 0.3 0 0.4 0.3 0.6 0.2 0.1 0.7 0.1z"/>
				<path id="&lt;Compound Path&gt;" class="s0" d="m118.9 118.6q0.3 0 0.7-0.1 0.4-0.1 0.9-0.1 0.5 0 0.9 0.2 0.3 0.1 0.5 0.4 0.2 0.2 0.3 0.6 0 0.3 0 0.7v2.3h-0.7v-2.1q0-0.4 0-0.6-0.1-0.3-0.2-0.5-0.1-0.2-0.3-0.2-0.2-0.1-0.5-0.1-0.2 0-0.3 0-0.1 0-0.2 0-0.1 0-0.2 0-0.1 0.1-0.1 0.1v3.4h-0.8z"/>
				<path id="&lt;Compound Path&gt;" class="s0" d="m122.8 123.4q0.1 0.1 0.2 0.1 0.2 0 0.3 0 0.5 0 0.7-0.2 0.3-0.2 0.5-0.6-0.6-1-1-2-0.4-1.1-0.7-2.2h0.8q0.1 0.4 0.2 0.8 0.1 0.4 0.3 0.9 0.1 0.4 0.3 0.8 0.2 0.4 0.4 0.8 0.3-0.8 0.5-1.6 0.2-0.8 0.4-1.7h0.8q-0.3 1.2-0.7 2.3-0.3 1-0.7 2-0.2 0.3-0.3 0.6-0.2 0.2-0.4 0.4-0.2 0.2-0.5 0.2-0.2 0.1-0.6 0.1-0.1 0-0.2 0-0.1 0-0.1 0-0.1 0-0.2-0.1-0.1 0-0.1 0z"/>
				<path id="&lt;Compound Path&gt;" class="s0" d="m127.9 118.5h1.6v0.6h-1.6v1.9q0 0.3 0 0.5 0.1 0.3 0.2 0.4 0.1 0.1 0.2 0.1 0.2 0.1 0.4 0.1 0.3 0 0.5-0.1 0.2-0.1 0.3-0.1l0.1 0.6q-0.1 0.1-0.4 0.2-0.2 0-0.6 0-0.4 0-0.7-0.1-0.2-0.1-0.4-0.3-0.2-0.2-0.2-0.5-0.1-0.3-0.1-0.8v-3.6l0.7-0.1z"/>
				<path id="&lt;Compound Path&gt;" class="s0" d="m130.4 122.6v-6l0.7-0.1v2.1q0.2-0.1 0.5-0.1 0.2-0.1 0.4-0.1 0.5 0 0.9 0.2 0.3 0.1 0.5 0.4 0.1 0.2 0.2 0.6 0.1 0.3 0.1 0.7v2.3h-0.7v-2.1q0-0.4-0.1-0.6 0-0.3-0.1-0.5-0.1-0.2-0.3-0.2-0.2-0.1-0.5-0.1-0.2 0-0.3 0-0.1 0-0.2 0-0.1 0.1-0.2 0.1-0.1 0-0.2 0v3.4z"/>
				<path id="&lt;Compound Path&gt;" class="s0" d="m135.3 117.8q-0.2 0-0.4-0.1-0.1-0.2-0.1-0.4 0-0.2 0.1-0.3 0.2-0.2 0.4-0.2 0.2 0 0.3 0.2 0.2 0.1 0.2 0.3 0 0.2-0.2 0.4-0.1 0.1-0.3 0.1zm-0.4 0.7h0.8v4.1h-0.8z"/>
				<path id="&lt;Compound Path&gt;" class="s0" d="m136.9 118.6q0.3 0 0.7-0.1 0.4-0.1 0.9-0.1 0.5 0 0.9 0.2 0.3 0.1 0.5 0.4 0.2 0.2 0.2 0.6 0.1 0.3 0.1 0.7v2.3h-0.7v-2.1q0-0.4-0.1-0.6 0-0.3-0.1-0.5-0.2-0.2-0.4-0.2-0.2-0.1-0.5-0.1 0 0-0.2 0-0.1 0-0.2 0-0.1 0-0.2 0-0.1 0.1-0.2 0.1v3.4h-0.7z"/>
				<path id="&lt;Compound Path&gt;" fill-rule="evenodd" class="s0" d="m144 122.2q-0.1 0.1-0.3 0.2-0.3 0.1-0.7 0.1-0.4 0-0.7-0.1-0.3-0.1-0.6-0.4-0.2-0.2-0.4-0.6-0.1-0.4-0.1-0.9 0-0.4 0.1-0.8 0.2-0.4 0.4-0.7 0.3-0.3 0.7-0.4 0.3-0.2 0.8-0.2 0.5 0 0.9 0.1 0.4 0.1 0.6 0.2v3.6q0 1-0.5 1.4-0.5 0.4-1.4 0.4-0.4 0-0.8 0-0.3-0.1-0.6-0.2l0.2-0.6q0.2 0.1 0.5 0.1 0.3 0.1 0.7 0.1 0.6 0 0.9-0.3 0.3-0.2 0.3-0.8zm0-3q-0.1-0.1-0.3-0.1-0.2 0-0.5 0-0.6 0-0.9 0.4-0.3 0.4-0.3 1 0 0.3 0.1 0.6 0.1 0.2 0.2 0.4 0.2 0.2 0.4 0.3 0.2 0 0.4 0 0.3 0 0.5-0.1 0.2 0 0.4-0.1z"/>
				<path id="&lt;Compound Path&gt;" class="s0" d="m146.8 121.7q0 0.1 0 0.2 0 0 0 0.1 0 0.5-0.2 1-0.1 0.5-0.3 0.9l-0.6-0.2q0.2-0.4 0.2-0.8 0.1-0.4 0.1-0.8 0-0.1 0-0.2 0-0.1 0-0.2z"/>
				<path id="&lt;Compound Path&gt;" fill-rule="evenodd" class="s0" d="m149.3 118.4q0.4 0 0.7 0.1 0.3 0.2 0.5 0.4 0.2 0.2 0.3 0.5 0.1 0.3 0.1 0.6v2.6q-0.1 0-0.3 0-0.2 0-0.4 0.1-0.2 0-0.5 0-0.2 0-0.5 0-0.3 0-0.6 0-0.3-0.1-0.5-0.3-0.2-0.1-0.3-0.4-0.1-0.2-0.1-0.6 0-0.3 0.1-0.5 0.1-0.3 0.4-0.4 0.2-0.2 0.5-0.3 0.3 0 0.7 0 0.1 0 0.2 0 0.1 0 0.2 0 0.1 0 0.2 0 0.1 0.1 0.1 0.1v-0.2q0-0.2 0-0.4-0.1-0.2-0.2-0.3-0.1-0.2-0.2-0.3-0.2 0-0.5 0-0.3 0-0.6 0-0.3 0.1-0.4 0.1l-0.1-0.6q0.1-0.1 0.5-0.1 0.3-0.1 0.7-0.1zm0 3.7q0.3 0 0.5 0 0.2 0 0.3 0v-1.2q-0.1-0.1-0.2-0.1-0.2 0-0.5 0-0.1 0-0.3 0-0.2 0-0.3 0.1-0.2 0-0.3 0.2-0.1 0.1-0.1 0.3 0 0.4 0.3 0.6 0.2 0.1 0.6 0.1z"/>
				<path id="&lt;Compound Path&gt;" class="s0" d="m152.1 118.6q0.2 0 0.6-0.1 0.5-0.1 1-0.1 0.5 0 0.8 0.2 0.3 0.1 0.5 0.4 0.2 0.2 0.3 0.6 0.1 0.3 0.1 0.7v2.3h-0.8v-2.1q0-0.4 0-0.6-0.1-0.3-0.2-0.5-0.1-0.2-0.3-0.2-0.2-0.1-0.5-0.1-0.1 0-0.2 0-0.1 0-0.3 0-0.1 0-0.2 0-0.1 0.1-0.1 0.1v3.4h-0.7z"/>
				<path id="&lt;Compound Path&gt;" class="s0" d="m156 123.4q0.1 0.1 0.2 0.1 0.1 0 0.3 0 0.4 0 0.6-0.2 0.3-0.2 0.5-0.6-0.5-1-0.9-2-0.5-1.1-0.7-2.2h0.8q0 0.4 0.1 0.8 0.2 0.4 0.3 0.9 0.2 0.4 0.3 0.8 0.2 0.4 0.4 0.8 0.3-0.8 0.5-1.6 0.3-0.8 0.5-1.7h0.7q-0.3 1.2-0.6 2.3-0.4 1-0.8 2-0.1 0.3-0.3 0.6-0.2 0.2-0.4 0.4-0.2 0.2-0.5 0.2-0.2 0.1-0.5 0.1-0.1 0-0.2 0-0.1 0-0.2 0-0.1 0-0.2-0.1 0 0-0.1 0z"/>
				<path id="&lt;Compound Path&gt;" class="s0" d="m161.1 118.5h1.5v0.6h-1.5v1.9q0 0.3 0 0.5 0.1 0.3 0.2 0.4 0.1 0.1 0.2 0.1 0.1 0.1 0.3 0.1 0.4 0 0.5-0.1 0.2-0.1 0.3-0.1l0.2 0.6q-0.1 0.1-0.4 0.2-0.3 0-0.6 0-0.5 0-0.7-0.1-0.3-0.1-0.5-0.3-0.1-0.2-0.2-0.5-0.1-0.3-0.1-0.8v-3.6l0.8-0.1z"/>
				<path id="&lt;Compound Path&gt;" class="s0" d="m163.9 117.8q-0.2 0-0.3-0.1-0.2-0.2-0.2-0.4 0-0.2 0.2-0.3 0.1-0.2 0.3-0.2 0.2 0 0.4 0.2 0.1 0.1 0.1 0.3 0 0.2-0.1 0.4-0.2 0.1-0.4 0.1zm-0.3 0.7h0.7v4.1h-0.7z"/>
				<path id="&lt;Compound Path&gt;" class="s0" d="m165.5 118.6q0.3 0 0.7-0.1 0.4-0.1 1-0.1 0.4 0 0.6 0.1 0.3 0.2 0.5 0.4 0-0.1 0.2-0.2 0.1 0 0.3-0.1 0.1-0.1 0.3-0.1 0.3-0.1 0.5-0.1 0.5 0 0.8 0.2 0.3 0.1 0.4 0.4 0.2 0.2 0.3 0.6 0 0.3 0 0.7v2.3h-0.7v-2.1q0-0.4-0.1-0.6 0-0.3-0.1-0.5-0.1-0.1-0.2-0.2-0.2-0.1-0.5-0.1-0.3 0-0.6 0.1-0.2 0.1-0.3 0.2 0 0.2 0.1 0.4 0 0.3 0 0.5v2.3h-0.7v-2.1q0-0.4-0.1-0.6 0-0.3-0.1-0.5-0.1-0.1-0.3-0.2-0.1-0.1-0.4-0.1-0.1 0-0.2 0-0.2 0-0.3 0-0.1 0-0.2 0-0.1 0.1-0.1 0.1v3.4h-0.8z"/>
				<path id="&lt;Compound Path&gt;" fill-rule="evenodd" class="s0" d="m172.1 120.6q0-0.5 0.2-1 0.1-0.4 0.4-0.6 0.2-0.3 0.6-0.4 0.3-0.2 0.7-0.2 0.8 0 1.3 0.5 0.4 0.6 0.4 1.6 0 0.1 0 0.2 0 0 0 0.1h-2.8q0 0.6 0.3 1 0.4 0.3 1.1 0.3 0.4 0 0.6-0.1 0.3 0 0.4-0.1l0.1 0.6q-0.1 0.1-0.4 0.2-0.4 0-0.8 0-0.6 0-1-0.1-0.3-0.2-0.6-0.5-0.2-0.3-0.4-0.7-0.1-0.4-0.1-0.8zm2.8-0.4q0.1-0.5-0.2-0.8-0.3-0.3-0.7-0.3-0.3 0-0.5 0.1-0.2 0.1-0.3 0.2-0.1 0.2-0.2 0.4-0.1 0.2-0.1 0.4z"/>
				<path id="&lt;Compound Path&gt;" class="s0" d="m177.5 121.7q0 0.1 0 0.2 0 0 0 0.1 0 0.5-0.1 1-0.1 0.5-0.4 0.9l-0.6-0.2q0.2-0.4 0.3-0.8 0-0.4 0-0.8 0-0.1 0-0.2 0-0.1 0-0.2z"/>
				<path id="&lt;Compound Path&gt;" fill-rule="evenodd" class="s0" d="m180 118.4q0.5 0 0.8 0.1 0.3 0.2 0.5 0.4 0.1 0.2 0.2 0.5 0.1 0.3 0.1 0.6v2.6q-0.1 0-0.3 0-0.1 0-0.4 0.1-0.2 0-0.4 0-0.2 0-0.5 0-0.3 0-0.6 0-0.3-0.1-0.5-0.3-0.3-0.1-0.4-0.4-0.1-0.2-0.1-0.6 0-0.3 0.1-0.5 0.2-0.3 0.4-0.4 0.3-0.2 0.6-0.3 0.3 0 0.6 0 0.2 0 0.3 0 0.1 0 0.2 0 0.1 0 0.2 0 0 0.1 0.1 0.1v-0.2q0-0.2-0.1-0.4 0-0.2-0.1-0.3-0.1-0.2-0.3-0.3-0.1 0-0.4 0-0.4 0-0.7 0-0.2 0.1-0.4 0.1l-0.1-0.6q0.2-0.1 0.5-0.1 0.3-0.1 0.7-0.1zm0.1 3.7q0.3 0 0.5 0 0.1 0 0.3 0v-1.2q-0.1-0.1-0.3-0.1-0.1 0-0.4 0-0.2 0-0.3 0-0.2 0-0.4 0.1-0.1 0-0.2 0.2-0.2 0.1-0.2 0.3 0 0.4 0.3 0.6 0.3 0.1 0.7 0.1z"/>
				<path id="&lt;Compound Path&gt;" class="s0" d="m182.8 118.6q0.3 0 0.7-0.1 0.4-0.1 1-0.1 0.4 0 0.8 0.2 0.3 0.1 0.5 0.4 0.2 0.2 0.2 0.6 0.1 0.3 0.1 0.7v2.3h-0.7v-2.1q0-0.4 0-0.6-0.1-0.3-0.2-0.5-0.1-0.2-0.3-0.2-0.2-0.1-0.5-0.1-0.1 0-0.3 0-0.1 0-0.2 0-0.1 0-0.2 0-0.1 0.1-0.2 0.1v3.4h-0.7z"/>
				<path id="&lt;Compound Path&gt;" class="s0" d="m186.7 123.4q0.1 0.1 0.2 0.1 0.2 0 0.3 0 0.5 0 0.7-0.2 0.3-0.2 0.5-0.6-0.5-1-1-2-0.4-1.1-0.7-2.2h0.8q0.1 0.4 0.2 0.8 0.1 0.4 0.3 0.9 0.1 0.4 0.3 0.8 0.2 0.4 0.3 0.8 0.3-0.8 0.6-1.6 0.2-0.8 0.4-1.7h0.8q-0.3 1.2-0.7 2.3-0.3 1-0.7 2-0.2 0.3-0.4 0.6-0.1 0.2-0.3 0.4-0.2 0.2-0.5 0.2-0.2 0.1-0.6 0.1-0.1 0-0.2 0 0 0-0.1 0-0.1 0-0.2-0.1-0.1 0-0.1 0z"/>
				<path id="&lt;Compound Path&gt;" class="s0" d="m194.5 122.6q-0.2-0.5-0.5-1.3-0.2-0.7-0.4-1.5-0.2 0.8-0.5 1.5-0.2 0.8-0.5 1.3h-0.6q-0.4-0.8-0.7-1.8-0.3-1.1-0.6-2.3h0.7q0.1 0.4 0.2 0.8 0.1 0.5 0.2 0.9 0.2 0.5 0.3 0.8 0.1 0.4 0.3 0.7 0.1-0.3 0.2-0.8 0.2-0.3 0.3-0.8 0.1-0.4 0.2-0.8 0.1-0.4 0.2-0.8h0.6q0 0.4 0.2 0.8 0.1 0.4 0.2 0.8 0.1 0.5 0.2 0.8 0.2 0.5 0.3 0.8 0.1-0.3 0.2-0.7 0.2-0.3 0.3-0.8 0.1-0.4 0.2-0.9 0.2-0.4 0.2-0.8h0.8q-0.3 1.2-0.7 2.3-0.3 1-0.7 1.8z"/>
				<path id="&lt;Compound Path&gt;" class="s0" d="m197.3 122.6v-6l0.7-0.1v2.1q0.2-0.1 0.4-0.1 0.3-0.1 0.5-0.1 0.5 0 0.8 0.2 0.3 0.1 0.5 0.4 0.2 0.2 0.3 0.6 0.1 0.3 0.1 0.7v2.3h-0.8v-2.1q0-0.4 0-0.6-0.1-0.3-0.2-0.5-0.1-0.2-0.3-0.2-0.2-0.1-0.5-0.1-0.1 0-0.2 0-0.1 0-0.3 0-0.1 0.1-0.2 0.1-0.1 0-0.1 0v3.4z"/>
				<path id="&lt;Compound Path&gt;" fill-rule="evenodd" class="s0" d="m201.6 120.6q0-0.5 0.1-1 0.1-0.4 0.4-0.6 0.3-0.3 0.6-0.4 0.4-0.2 0.7-0.2 0.9 0 1.3 0.5 0.4 0.6 0.4 1.6 0 0.1 0 0.2 0 0 0 0.1h-2.8q0 0.6 0.4 1 0.3 0.3 1 0.3 0.4 0 0.7-0.1 0.2 0 0.3-0.1l0.1 0.6q-0.1 0.1-0.4 0.2-0.4 0-0.8 0-0.5 0-0.9-0.1-0.4-0.2-0.7-0.5-0.2-0.3-0.3-0.7-0.1-0.4-0.1-0.8zm2.8-0.4q0-0.5-0.3-0.8-0.2-0.3-0.7-0.3-0.2 0-0.4 0.1-0.2 0.1-0.4 0.2-0.1 0.2-0.2 0.4-0.1 0.2-0.1 0.4z"/>
				<path id="&lt;Compound Path&gt;" class="s0" d="m207.7 118.4q0.1 0 0.2 0 0.1 0.1 0.3 0.1 0.1 0 0.2 0 0.1 0 0.1 0.1l-0.1 0.6q-0.1 0-0.3-0.1-0.2 0-0.5 0-0.2 0-0.4 0-0.2 0.1-0.3 0.1v3.4h-0.7v-3.9q0.3-0.1 0.6-0.2 0.4-0.1 0.9-0.1z"/>
				<path id="&lt;Compound Path&gt;" fill-rule="evenodd" class="s0" d="m209 120.6q0-0.5 0.2-1 0.1-0.4 0.4-0.6 0.2-0.3 0.6-0.4 0.3-0.2 0.7-0.2 0.8 0 1.3 0.5 0.4 0.6 0.4 1.6 0 0.1 0 0.2 0 0 0 0.1h-2.8q0 0.6 0.3 1 0.4 0.3 1.1 0.3 0.3 0 0.6-0.1 0.3 0 0.4-0.1l0.1 0.6q-0.1 0.1-0.5 0.2-0.3 0-0.7 0-0.6 0-1-0.1-0.4-0.2-0.6-0.5-0.2-0.3-0.4-0.7-0.1-0.4-0.1-0.8zm2.8-0.4q0-0.5-0.2-0.8-0.3-0.3-0.7-0.3-0.3 0-0.5 0.1-0.2 0.1-0.3 0.2-0.2 0.2-0.2 0.4-0.1 0.2-0.1 0.4z"/>
			</g>
		</g>
	</g>
</svg>