<?xml version="1.0" standalone="no"?><svg xmlns="http://www.w3.org/2000/svg" xmlns:xlink="http://www.w3.org/1999/xlink" style="isolation:isolate" viewBox="0 0 420 145" width="420" height="145"><defs><clipPath id="_clipPath_2hPO4s1H9JL2GudRPEDVYV3CE80U49Xb"><rect width="420" height="145"/></clipPath></defs><g clip-path="url(#_clipPath_2hPO4s1H9JL2GudRPEDVYV3CE80U49Xb)"><g><g transform="matrix(1,0,0,1,154,15.802)"><text transform="matrix(1,0,0,1,0,79.095)" style="font-family:'Open Sans';font-weight:700;font-size:74px;font-style:normal;font-variant-ligatures:none;fill:#000000;stroke:none;">AZUG</text></g><g transform="matrix(1,0,0,1,153,104.686)"><text transform="matrix(1,0,0,1,0,21.377)" style="font-family:'Open Sans';font-weight:400;font-size:20px;font-style:normal;font-variant-ligatures:none;fill:#000000;stroke:none;">Azure User Group Belgium</text></g></g><g><circle vector-effect="non-scaling-stroke" cx="72.5" cy="72.5" r="72.5" fill="rgb(5,15,74)"/><rect x="0" y="72.5" width="72.5" height="72.5" transform="matrix(1,0,0,1,0,0)" fill="rgb(5,15,74)"/><path d=" M 113.19 73.15 C 113.26 73.38 113.3 73.62 113.3 73.86 C 113.3 74.83 112.68 75.7 111.76 76 C 111.53 76.08 111.29 76.12 111.05 76.12 C 110.08 76.12 109.22 75.5 108.91 74.58 C 105.98 65.84 99.42 58.77 90.93 55.18 C 90.09 54.82 89.55 54 89.55 53.1 C 89.55 52.79 89.61 52.5 89.73 52.22 C 90.08 51.39 90.9 50.84 91.81 50.84 C 92.11 50.84 92.41 50.9 92.68 51.02 C 102.37 55.11 109.84 63.18 113.19 73.15 L 113.19 73.15 L 113.19 73.15 Z  M 125.33 74.08 C 125.14 74.13 124.94 74.16 124.74 74.16 C 124.25 74.16 123.76 73.99 123.37 73.69 C 122.97 73.38 122.69 72.96 122.56 72.48 C 120.65 65.3 117.01 58.7 111.96 53.26 C 106.91 47.81 100.6 43.69 93.58 41.24 C 92.68 40.93 92.07 40.07 92.07 39.12 C 92.07 38.86 92.11 38.61 92.2 38.37 C 92.52 37.47 93.37 36.86 94.33 36.86 C 94.58 36.86 94.83 36.9 95.07 36.98 C 102.78 39.67 109.71 44.2 115.26 50.19 C 120.82 56.17 124.82 63.43 126.92 71.32 C 126.97 71.51 127 71.7 127 71.9 C 127 72.4 126.84 72.88 126.53 73.27 C 126.23 73.67 125.81 73.95 125.33 74.08 L 125.33 74.08 L 125.33 74.08 Z  M 101.73 84.82 C 101.73 91 99.27 96.93 94.89 101.3 C 90.52 105.67 84.59 108.14 78.41 108.14 C 78.41 108.14 78.41 108.14 78.41 108.14 L 34.09 108.14 L 34.2 107.71 C 29.65 106.84 25.54 104.41 22.58 100.84 C 19.63 97.27 18.01 92.79 18 88.15 C 18 83.21 19.84 78.45 23.16 74.79 C 26.29 71.33 30.54 69.08 35.16 68.43 C 36.02 64.03 38.33 60.05 41.72 57.12 C 45.33 54.03 49.93 52.32 54.68 52.33 C 58.2 52.33 61.66 53.27 64.71 55.04 C 67.76 56.81 70.28 59.36 72.02 62.42 C 74.1 61.81 76.25 61.5 78.41 61.49 C 84.59 61.49 90.52 63.95 94.89 68.33 C 99.27 72.7 101.73 78.63 101.73 84.82 L 101.73 84.82 Z " fill-rule="evenodd" fill="rgb(255,255,255)"/></g></g></svg>